<svg height="512pt" viewBox="0 -3 512.002 512" width="512pt" xmlns="http://www.w3.org/2000/svg"><path d="m434.5625 451.25h-410.375c-9.214844 0-16.6875-7.472656-16.6875-16.6875v-410.375c0-9.214844 7.472656-16.6875 16.6875-16.6875h410.375c9.214844 0 16.6875 7.472656 16.6875 16.6875v410.375c0 9.214844-7.472656 16.6875-16.6875 16.6875zm0 0" fill="#f2f2f2"/><path d="m434.5625 7.5h-53.695312c9.214843 0 16.6875 7.472656 16.6875 16.6875v410.375c0 9.214844-7.472657 16.6875-16.6875 16.6875h53.695312c9.214844 0 16.6875-7.472656 16.6875-16.6875v-410.375c0-9.214844-7.472656-16.6875-16.6875-16.6875zm0 0" fill="#cdd6df"/><path d="m434.5625 7.5h-410.375c-9.214844 0-16.6875 7.472656-16.6875 16.6875v50.507812h443.75v-50.507812c0-9.214844-7.472656-16.6875-16.6875-16.6875zm0 0" fill="#426175"/><path d="m451.25 74.695312v-50.507812c0-9.214844-7.472656-16.6875-16.6875-16.6875h-53.695312c9.214843 0 16.6875 7.472656 16.6875 16.6875v50.507812zm0 0" fill="#2c4456"/><g fill="#46d1c0"><path d="m343.457031 41.097656c0 4.410156-3.574219 7.988282-7.988281 7.988282-4.410156 0-7.988281-3.578126-7.988281-7.988282s3.578125-7.988281 7.988281-7.988281c4.414062 0 7.988281 3.578125 7.988281 7.988281zm0 0"/><path d="m381.753906 41.097656c0 4.410156-3.574218 7.988282-7.988281 7.988282-4.410156 0-7.988281-3.578126-7.988281-7.988282s3.578125-7.988281 7.988281-7.988281c4.414063 0 7.988281 3.578125 7.988281 7.988281zm0 0"/><path d="m420.050781 41.097656c0 4.410156-3.574219 7.988282-7.988281 7.988282-4.410156 0-7.988281-3.578126-7.988281-7.988282s3.578125-7.988281 7.988281-7.988281c4.414062 0 7.988281 3.578125 7.988281 7.988281zm0 0"/></g><path d="m494.160156 375.597656h-6.886718c-4.527344 0-8.558594-2.933594-9.871094-7.261718-1.667969-5.511719-3.890625-10.777344-6.601563-15.742188-2.191406-4.011719-1.453125-8.992188 1.78125-12.226562l4.9375-4.9375c4.039063-4.039063 4.039063-10.585938 0-14.625l-8.332031-8.332032c-4.039062-4.039062-10.585938-4.039062-14.625 0l-4.9375 4.9375c-3.234375 3.234375-8.214844 3.972656-12.226562 1.78125-4.964844-2.710937-10.234376-4.933594-15.742188-6.601562-4.328125-1.3125-7.261719-5.34375-7.261719-9.871094v-6.886719c0-5.710937-4.632812-10.339843-10.34375-10.339843h-11.785156c-5.710937 0-10.339844 4.628906-10.339844 10.339843v6.441407c0 4.589843-3.019531 8.664062-7.4375 9.921874-5.679687 1.613282-11.113281 3.816407-16.234375 6.53125-3.988281 2.117188-8.898437 1.339844-12.09375-1.851562l-4.402344-4.402344c-4.039062-4.039062-10.585937-4.039062-14.625 0l-8.332031 8.332032c-4.039062 4.039062-4.039062 10.585937 0 14.625l3.953125 3.953124c3.257813 3.257813 3.988282 8.296876 1.730469 12.316407-2.933594 5.222656-5.324219 10.785156-7.09375 16.621093-1.320313 4.347657-5.386719 7.277344-9.925781 7.277344h-5.304688c-5.710937 0-10.339844 4.628906-10.339844 10.339844v11.785156c0 5.710938 4.628907 10.34375 10.339844 10.34375h4.890625c4.589844 0 8.679688 3.003906 9.933594 7.417969 1.710937 6.023437 4.082031 11.769531 7.027344 17.160156 2.183593 3.996094 1.414062 8.964844-1.808594 12.183594l-3.402344 3.40625c-4.039062 4.039063-4.039062 10.585937 0 14.625l8.332031 8.332031c4.039063 4.039063 10.585938 4.039063 14.625 0l3.402344-3.40625c3.222656-3.21875 8.191406-3.988281 12.1875-1.804687 5.386719 2.945312 11.136719 5.316406 17.160156 7.027343 4.414063 1.253907 7.417969 5.34375 7.417969 9.933594v4.890625c0 5.710938 4.632813 10.339844 10.34375 10.339844h11.785157c5.710937 0 10.339843-4.628906 10.339843-10.339844v-5.304687c0-4.539063 2.929688-8.605469 7.277344-9.925782 5.835937-1.769531 11.398437-4.160156 16.617187-7.09375 4.023438-2.261718 9.0625-1.527343 12.320313 1.730469l3.953125 3.953125c4.039062 4.039063 10.585938 4.039063 14.625 0l8.332031-8.332031c4.039063-4.039063 4.039063-10.585937 0-14.625l-4.402343-4.402344c-3.191407-3.191406-3.96875-8.105469-1.851563-12.09375 2.71875-5.121093 4.917969-10.554687 6.53125-16.234375 1.257813-4.417968 5.332031-7.4375 9.921875-7.4375h6.441406c5.710938 0 10.339844-4.628906 10.339844-10.339844v-11.785156c0-5.714844-4.628906-10.34375-10.339844-10.34375zm-96 61.925782c-25.234375 0-45.691406-20.457032-45.691406-45.691407s20.457031-45.691406 45.691406-45.691406 45.691406 20.457031 45.691406 45.691406-20.457031 45.691407-45.691406 45.691407zm0 0" fill="#fd715c"/><path d="m102.726562 246.105469 50.375-32.945313c.769532-.574218 1.917969-.765625 2.875-.765625 4.019532 0 9.195313 4.214844 9.195313 9.578125 0 2.296875-1.152344 4.40625-2.875 5.554688l-40.226563 26.433594 40.226563 26.433593c1.722656.957031 2.875 3.0625 2.875 5.554688 0 5.363281-5.175781 9.386719-9.195313 9.386719-.957031 0-2.105468-.191407-2.875-.769532l-50.375-32.945312c-2.871093-1.914063-4.214843-5.171875-4.214843-7.660156 0-2.492188 1.34375-5.9375 4.214843-7.855469zm0 0"/><path d="m271.671875 166.808594c0 1.148437-.191406 2.105468-.769531 3.0625l-70.292969 140.210937c-1.148437 2.300781-3.640625 3.640625-6.324219 3.640625-4.402344 0-7.46875-3.640625-7.46875-7.085937 0-.960938.191406-1.917969.574219-2.875l70.488281-140.785157c1.148438-2.488281 3.257813-3.449218 5.746094-3.449218 3.832031 0 8.046875 2.875 8.046875 7.28125zm0 0"/><path d="m355.566406 261.621094-50.375 32.945312c-.765625.578125-1.722656.769532-2.679687.769532-4.214844 0-9.195313-4.023438-9.195313-9.386719 0-2.492188 1.148438-4.597657 2.679688-5.554688l40.417968-26.433593-40.417968-26.433594c-1.53125-1.148438-2.679688-3.257813-2.679688-5.554688 0-5.363281 4.980469-9.578125 9.195313-9.578125.957031 0 1.914062.191407 2.679687.765625l50.375 32.945313c2.875 1.917969 4.214844 5.363281 4.214844 7.855469 0 2.488281-1.148438 5.746093-4.214844 7.660156zm0 0"/><path d="m46.214844 48.597656h163.082031c4.144531 0 7.5-3.359375 7.5-7.5s-3.355469-7.5-7.5-7.5h-163.082031c-4.144532 0-7.5 3.359375-7.5 7.5s3.355468 7.5 7.5 7.5zm0 0"/><path d="m286.40625 443.75h-262.21875c-5.066406 0-9.1875-4.121094-9.1875-9.1875v-352.367188h428.75v203.296876c0 4.140624 3.355469 7.5 7.5 7.5s7.5-3.359376 7.5-7.5v-261.304688c0-13.335938-10.851562-24.1875-24.1875-24.1875h-410.375c-13.335938 0-24.1875 10.851562-24.1875 24.1875v410.375c0 13.335938 10.851562 24.1875 24.1875 24.1875h262.21875c4.140625 0 7.5-3.359375 7.5-7.5s-3.359375-7.5-7.5-7.5zm-262.21875-428.75h410.375c5.066406 0 9.1875 4.121094 9.1875 9.1875v43.007812h-428.75v-43.007812c0-5.066406 4.121094-9.1875 9.1875-9.1875zm0 0"/><path d="m398.160156 338.640625c-29.332031 0-53.191406 23.859375-53.191406 53.191406s23.859375 53.191407 53.191406 53.191407c29.332032 0 53.191406-23.859376 53.191406-53.191407s-23.859374-53.191406-53.191406-53.191406zm0 91.382813c-21.058594 0-38.191406-17.132813-38.191406-38.191407 0-21.058593 17.132812-38.191406 38.191406-38.191406s38.191406 17.132813 38.191406 38.191406c0 21.058594-17.132812 38.191407-38.191406 38.191407zm0 0"/><path d="m494.160156 368.097656h-6.886718c-1.238282 0-2.347657-.796875-2.691407-1.9375-1.800781-5.9375-4.222656-11.710937-7.195312-17.160156-.589844-1.074219-.382813-2.445312.5-3.328125l4.9375-4.941406c6.953125-6.953125 6.953125-18.273438 0-25.226563l-8.335938-8.335937c-6.953125-6.953125-18.269531-6.957031-25.230469 0l-4.933593 4.9375c-.886719.882812-2.257813 1.089843-3.332031.503906-5.453126-2.976563-11.226563-5.398437-17.160157-7.199219-1.140625-.34375-1.9375-1.449218-1.9375-2.691406v-6.882812c0-9.839844-8.003906-17.84375-17.84375-17.84375h-11.78125c-9.839843 0-17.84375 8.003906-17.84375 17.84375v6.4375c0 1.261718-.816406 2.375-1.988281 2.707031-6.117188 1.738281-12.074219 4.136719-17.699219 7.121093-1.054687.5625-2.402343.339844-3.273437-.53125l-4.402344-4.402343c-3.371094-3.367188-7.851562-5.226563-12.617188-5.226563-4.765624 0-9.246093 1.859375-12.613281 5.226563l-8.332031 8.335937c-3.371094 3.367188-5.226562 7.847656-5.226562 12.613282 0 4.765624 1.855468 9.246093 5.226562 12.617187l3.949219 3.953125c.898437.894531 1.101562 2.269531.5 3.339844-3.226563 5.738281-5.828125 11.832031-7.734375 18.121094-.351563 1.148437-1.480469 1.953124-2.75 1.953124h-5.300782c-9.839843 0-17.84375 8-17.84375 17.839844v11.785156c0 9.835938 8.003907 17.839844 17.84375 17.839844h4.886719c1.273438 0 2.390625.808594 2.722657 1.96875 1.839843 6.484375 4.417968 12.78125 7.660156 18.707032.570312 1.050781.355468 2.402343-.53125 3.285156l-3.402344 3.40625c-6.957031 6.957031-6.957031 18.273437 0 25.230468l8.332031 8.332032c6.957031 6.957031 18.273438 6.957031 25.230469 0l3.40625-3.40625c.882812-.882813 2.234375-1.101563 3.285156-.527344 5.925782 3.242188 12.21875 5.816406 18.707032 7.660156 1.160156.328125 1.96875 1.449219 1.96875 2.71875v4.890625c0 9.835938 8.003906 17.839844 17.839843 17.839844h11.785157c9.835937 0 17.839843-8 17.839843-17.839844v-5.300781c0-1.273438.804688-2.402344 1.953125-2.75 6.285156-1.90625 12.382813-4.507812 18.121094-7.734375 1.070312-.605469 2.441406-.398437 3.339844.496094l3.953125 3.953125c6.957031 6.953125 18.273437 6.957031 25.230469 0l8.332031-8.332032c6.957031-6.957031 6.957031-18.273437 0-25.230468l-4.402344-4.402344c-.871094-.875-1.089844-2.21875-.53125-3.273438 2.988281-5.625 5.382813-11.582031 7.125-17.703124.332031-1.167969 1.445313-1.988282 2.707031-1.988282h6.4375c9.839844 0 17.84375-8 17.84375-17.839844v-11.785156c-.003906-9.839844-8.007812-17.84375-17.84375-17.84375zm2.839844 29.625c0 1.566406-1.273438 2.84375-2.839844 2.84375h-6.441406c-7.933594 0-14.976562 5.296875-17.132812 12.882813-1.453126 5.109375-3.453126 10.074219-5.945313 14.769531-3.679687 6.933594-2.40625 15.339844 3.175781 20.917969l4.402344 4.402343c1.105469 1.105469 1.105469 2.910157 0 4.015626l-8.332031 8.335937c-1.109375 1.105469-2.914063 1.105469-4.019531 0l-3.953126-3.953125c-5.632812-5.632812-14.390624-6.851562-21.300781-2.964844-4.789062 2.691406-9.875 4.863282-15.117187 6.453125-7.421875 2.25-12.601563 9.28125-12.601563 17.105469v5.300781c0 1.566407-1.277343 2.839844-2.84375 2.839844h-11.785156c-1.566406 0-2.839844-1.273437-2.839844-2.839844v-4.890625c0-7.945312-5.292969-14.996094-12.867187-17.148437-5.414063-1.535157-10.667969-3.6875-15.613282-6.390625-2.632812-1.4375-5.535156-2.140625-8.425781-2.140625-4.632812 0-9.238281 1.796875-12.660156 5.222656l-3.40625 3.40625c-1.105469 1.105469-2.910156 1.105469-4.015625 0l-8.335938-8.332031c-1.105468-1.109375-1.105468-2.910156 0-4.019532l3.40625-3.40625c5.5625-5.5625 6.828126-14.234374 3.082032-21.085937-2.703125-4.945313-4.855469-10.199219-6.390625-15.609375-2.152344-7.578125-9.203125-12.871094-17.148438-12.871094h-4.890625c-1.566406 0-2.84375-1.273437-2.84375-2.839844v-11.785156c0-1.566406 1.277344-2.84375 2.84375-2.84375h5.300782c7.824218 0 14.855468-5.179687 17.105468-12.601562 1.589844-5.242188 3.761719-10.328125 6.453125-15.117188 3.886719-6.910156 2.664063-15.667968-2.964843-21.300781l-3.953126-3.953125c-.722656-.722656-.832031-1.570312-.832031-2.007812 0-.441407.109375-1.285157.832031-2.011719l8.332032-8.332031c.726562-.722657 1.570312-.832032 2.011718-.832032.4375 0 1.28125.109375 2.007813.832032l4.402344 4.402343c5.578125 5.582031 13.980469 6.855469 20.917969 3.175781 4.691406-2.492187 9.660156-4.492187 14.765624-5.945312 7.589844-2.15625 12.886719-9.203125 12.886719-17.136719v-6.4375c0-1.566406 1.273438-2.839843 2.839844-2.839843h11.785156c1.566407 0 2.84375 1.273437 2.84375 2.839843v6.886719c0 7.914062 5.058594 14.765625 12.589844 17.046875 4.949219 1.5 9.769531 3.519531 14.316406 6.007813 6.878907 3.753906 15.566407 2.496093 21.128907-3.0625l4.933593-4.9375c1.109375-1.109376 2.914063-1.109376 4.019531 0l8.335938 8.332031c1.105469 1.109375 1.105469 2.910156 0 4.019531l-4.9375 4.9375c-5.558594 5.558594-6.816406 14.246094-3.0625 21.125 2.484375 4.550781 4.507812 9.367188 6.007812 14.320312 2.28125 7.53125 9.128907 12.589844 17.046876 12.589844h6.886718c1.566406 0 2.839844 1.273438 2.839844 2.839844zm0 0"/></svg>